<svg width="474" height="524" viewBox="0 0 474 524" fill="none" xmlns="http://www.w3.org/2000/svg">
<rect x="32.8234" y="151.458" width="407.946" height="220.114" fill="#297BFF"/>
<path d="M236.796 1.38062L441.868 152.959H31.7247L236.796 1.38062Z" fill="#297BFF"/>
<path d="M237.027 521.847L31.7825 370.439L441.926 370.098L237.027 521.847Z" fill="#297BFF"/>
<path d="M163.832 284.208C163.832 283.541 163.999 282.708 164.332 281.708L181.332 236.708H171.082C166.582 236.708 164.332 233.541 164.332 227.208C164.332 224.708 164.915 222.625 166.082 220.958C167.249 219.125 168.915 218.208 171.082 218.208H188.332L223.082 127.208C224.415 124.541 226.249 122.458 228.582 120.958C230.915 119.291 232.999 118.458 234.832 118.458C236.665 118.458 238.749 119.291 241.082 120.958C243.415 122.625 245.165 124.708 246.332 127.208L281.082 218.208H297.332C299.499 218.208 301.165 219.125 302.332 220.958C303.665 222.791 304.332 224.958 304.332 227.458C304.332 233.625 301.999 236.708 297.332 236.708H288.332L305.582 281.708C305.915 282.708 306.082 283.541 306.082 284.208C306.082 286.708 304.832 288.875 302.332 290.708C299.832 292.541 297.332 293.458 294.832 293.458C292.165 293.458 290.165 292.208 288.832 289.708L268.582 236.708H201.332L181.082 289.708C179.749 292.208 177.749 293.458 175.082 293.458C172.582 293.458 170.082 292.541 167.582 290.708C165.082 288.875 163.832 286.708 163.832 284.208ZM208.332 218.208H261.332L234.832 148.458L208.332 218.208Z" fill="white"/>
<ellipse cx="103.584" cy="371.609" rx="17.5839" ry="14.9023" fill="#6EBEFF"/>
<ellipse cx="236.91" cy="371.609" rx="17.5839" ry="14.9023" fill="#6EBEFF"/>
<rect x="114.11" y="366.738" width="78.33" height="12" fill="#6EBEFF"/>
<ellipse cx="17.5828" cy="14.9036" rx="17.5828" ry="14.9036" transform="matrix(-0.99984 0.0178757 -0.0248841 -0.99969 388.183 385.419)" fill="#6EBEFF"/>
<rect width="78.3315" height="11.9229" transform="matrix(-0.99984 0.0178757 -0.0248841 -0.99969 359.807 375.989)" fill="#6EBEFF"/>
<rect width="264.251" height="12.8983" transform="matrix(-0.802619 0.596492 -0.719065 -0.694943 247.157 8.96362)" fill="#5394FE"/>
<rect width="269.353" height="12.8983" transform="matrix(-0.802619 0.596492 -0.719065 -0.694943 451.654 362.763)" fill="#5394FE"/>
</svg>
