<svg width="2101" height="423" viewBox="0 0 2101 423" fill="none" xmlns="http://www.w3.org/2000/svg">
<path d="M547.38 289.97V320H467.546V289.97L482.487 287.773L546.061 106.719H601.725L665.446 287.773L680.387 289.97V320H600.7V289.97L614.616 287.334L608.171 264.189H539.616L533.464 287.334L547.38 289.97ZM573.161 156.084L570.671 164.287L550.456 228.154H597.184L576.384 163.554L574.04 156.084H573.161ZM784.245 289.97V320H688.591V289.97L710.563 285.283V141.582L688.591 136.894V106.719H789.225L840.788 247.197H841.667L891.764 106.719H991.227V136.894L969.108 141.582V285.283L991.227 289.97V320H895.719V289.97L918.718 285.283V257.451L919.889 157.109L919.01 156.963L858.659 320H818.229L756.999 158.867L755.973 159.013L759.489 250.42V285.283L784.245 289.97ZM1104.46 323.076C1089.71 323.076 1076.14 320.39 1063.74 315.019C1051.43 309.551 1040.74 301.933 1031.66 292.168C1022.57 282.402 1015.54 270.976 1010.56 257.89C1005.68 244.707 1003.24 230.4 1003.24 214.97V211.601C1003.24 196.269 1005.68 182.06 1010.56 168.974C1015.54 155.888 1022.57 144.463 1031.66 134.697C1040.64 124.931 1051.29 117.314 1063.59 111.845C1075.9 106.377 1089.42 103.642 1104.17 103.642C1118.62 103.642 1132.05 106.377 1144.45 111.845C1156.85 117.314 1167.74 124.931 1177.12 134.697C1186.39 144.463 1193.62 155.888 1198.8 168.974C1203.97 182.06 1206.56 196.269 1206.56 211.601V214.97C1206.56 230.4 1203.97 244.707 1198.8 257.89C1193.62 270.976 1186.39 282.402 1177.12 292.168C1167.84 301.933 1157 309.551 1144.6 315.019C1132.19 320.39 1118.82 323.076 1104.46 323.076ZM1104.46 284.111C1115.1 284.111 1124.28 281.23 1132 275.469C1147.62 263.554 1155.44 243.388 1155.44 214.97V211.308C1155.44 197.929 1153.43 185.967 1149.43 175.42C1145.33 165.166 1139.47 157.158 1131.85 151.396C1124.24 145.635 1115.01 142.754 1104.17 142.754C1092.64 142.754 1083.32 145.586 1076.19 151.25C1068.86 156.914 1063.44 164.873 1059.93 175.127C1056.41 185.381 1054.66 197.441 1054.66 211.308V214.97C1054.66 228.935 1056.46 241.045 1060.07 251.299C1063.59 261.65 1069.01 269.707 1076.33 275.469C1083.76 281.23 1093.13 284.111 1104.46 284.111Z" fill="#297BFF" fill-opacity="0.9"/>
<path d="M1245.18 238.4V219.5H1319.58V238.4H1245.18ZM1406.02 320V134.6H1335.82V110.9H1502.62V134.6H1432.72V320H1406.02ZM1531.1 320V110.9H1668.8V134.6H1557.5V201.5H1658.6V225.2H1557.5V296.3H1668.8V320H1531.1ZM1793.02 323.6C1773.82 323.6 1756.92 319.1 1742.32 310.1C1727.92 301.1 1716.62 288.5 1708.42 272.3C1700.42 255.9 1696.42 236.9 1696.42 215.3C1696.42 193.7 1700.42 174.8 1708.42 158.6C1716.62 142.4 1727.92 129.8 1742.32 120.8C1756.92 111.8 1773.82 107.3 1793.02 107.3C1814.02 107.3 1832.22 112.5 1847.62 122.9C1863.02 133.3 1874.12 147.7 1880.92 166.1L1856.32 175.4C1851.12 161.8 1843.12 151.3 1832.32 143.9C1821.52 136.3 1808.42 132.5 1793.02 132.5C1778.82 132.5 1766.42 135.9 1755.82 142.7C1745.22 149.5 1737.02 159.1 1731.22 171.5C1725.62 183.7 1722.82 198.3 1722.82 215.3C1722.82 232.3 1725.62 247 1731.22 259.4C1737.02 271.8 1745.22 281.4 1755.82 288.2C1766.42 295 1778.82 298.4 1793.02 298.4C1808.42 298.4 1821.52 294.6 1832.32 287C1843.12 279.4 1851.12 268.9 1856.32 255.5L1880.92 264.5C1874.12 282.7 1863.02 297.1 1847.62 307.7C1832.22 318.3 1814.02 323.6 1793.02 323.6ZM1916.35 320V110.9H1942.75V200.6H2045.95V110.9H2072.35V320H2045.95V225.2H1942.75V320H1916.35Z" fill="#ABAFB3"/>
<rect x="26.4746" y="122.164" width="329.041" height="177.54" fill="#297BFF"/>
<path d="M190.995 1.11377L356.402 123.374H25.5885L190.995 1.11377Z" fill="#297BFF"/>
<path d="M191.181 420.912L25.6351 298.789L356.448 298.514L191.181 420.912Z" fill="#297BFF"/>
<path d="M142.297 202.861C142.297 202.408 142.41 201.841 142.637 201.161L154.197 170.561H147.227C144.167 170.561 142.637 168.408 142.637 164.101C142.637 162.401 143.033 160.984 143.827 159.851C144.62 158.604 145.753 157.981 147.227 157.981H158.957L182.587 96.1011C183.493 94.2878 184.74 92.8711 186.327 91.8511C187.913 90.7178 189.33 90.1511 190.577 90.1511C191.823 90.1511 193.24 90.7178 194.827 91.8511C196.413 92.9845 197.603 94.4011 198.397 96.1011L222.027 157.981H233.077C234.55 157.981 235.683 158.604 236.477 159.851C237.383 161.098 237.837 162.571 237.837 164.271C237.837 168.464 236.25 170.561 233.077 170.561H226.957L238.687 201.161C238.913 201.841 239.027 202.408 239.027 202.861C239.027 204.561 238.177 206.034 236.477 207.281C234.777 208.528 233.077 209.151 231.377 209.151C229.563 209.151 228.203 208.301 227.297 206.601L213.527 170.561H167.797L154.027 206.601C153.12 208.301 151.76 209.151 149.947 209.151C148.247 209.151 146.547 208.528 144.847 207.281C143.147 206.034 142.297 204.561 142.297 202.861ZM172.557 157.981H208.597L190.577 110.551L172.557 157.981Z" fill="white"/>
<ellipse cx="78.4782" cy="277.861" rx="14.1828" ry="12.0199" fill="#6EBEFF"/>
<ellipse cx="190.05" cy="277.861" rx="14.1828" ry="12.0199" fill="#6EBEFF"/>
<rect x="86.988" y="273.854" width="75.6417" height="9.61591" fill="#6EBEFF"/>
<ellipse cx="14.1819" cy="12.0209" rx="14.1819" ry="12.0209" transform="matrix(-0.99984 0.0178757 -0.0248841 -0.99969 316.096 289)" fill="#6EBEFF"/>
<rect width="75.6369" height="9.61675" transform="matrix(-0.99984 0.0178757 -0.0248841 -0.99969 293.209 281.393)" fill="#6EBEFF"/>
<rect width="213.139" height="10.4035" transform="matrix(-0.802619 0.596492 -0.719065 -0.694943 199.352 7.22998)" fill="#5394FE"/>
<rect width="217.255" height="10.4035" transform="matrix(-0.802619 0.596492 -0.719065 -0.694943 364.295 292.598)" fill="#5394FE"/>
</svg>
