<svg width="221" height="264" viewBox="0 0 221 264" fill="none" xmlns="http://www.w3.org/2000/svg">
<rect x="15.2826" y="76.2258" width="189.941" height="110.779" fill="#509EED"/>
<path d="M110.253 0.694946L205.735 76.9812H14.7711L110.253 0.694946Z" fill="#509EED"/>
<path d="M110.36 262.635L14.798 186.434L205.761 186.263L110.36 262.635Z" fill="#509EED"/>
<path d="M76 135.889C76 135.569 76.08 135.169 76.24 134.689L84.4 113.089H79.48C77.32 113.089 76.24 111.569 76.24 108.529C76.24 107.329 76.52 106.329 77.08 105.529C77.64 104.649 78.44 104.209 79.48 104.209H87.76L104.44 60.5292C105.08 59.2492 105.96 58.2492 107.08 57.5292C108.2 56.7292 109.2 56.3292 110.08 56.3292C110.96 56.3292 111.96 56.7292 113.08 57.5292C114.2 58.3292 115.04 59.3292 115.6 60.5292L132.28 104.209H140.08C141.12 104.209 141.92 104.649 142.48 105.529C143.12 106.409 143.44 107.449 143.44 108.649C143.44 111.609 142.32 113.089 140.08 113.089H135.76L144.04 134.689C144.2 135.169 144.28 135.569 144.28 135.889C144.28 137.089 143.68 138.129 142.48 139.009C141.28 139.889 140.08 140.329 138.88 140.329C137.6 140.329 136.64 139.729 136 138.529L126.28 113.089H94L84.28 138.529C83.64 139.729 82.68 140.329 81.4 140.329C80.2 140.329 79 139.889 77.8 139.009C76.6 138.129 76 137.089 76 135.889ZM97.36 104.209H122.8L110.08 70.7292L97.36 104.209Z" fill="white"/>
<ellipse cx="45.3019" cy="173.376" rx="8.18709" ry="7.5" fill="#6EBEFF"/>
<ellipse cx="109.707" cy="173.376" rx="8.18709" ry="7.5" fill="#6EBEFF"/>
<rect x="50.2142" y="170.876" width="43.6645" height="6" fill="#6EBEFF"/>
<ellipse cx="8.1868" cy="7.50032" rx="8.1868" ry="7.50032" transform="matrix(-0.999813 0.0193217 -0.0230223 -0.999735 182.468 180.326)" fill="#6EBEFF"/>
<rect width="43.6629" height="6.00026" transform="matrix(-0.999813 0.0193217 -0.0230223 -0.999735 169.256 175.58)" fill="#6EBEFF"/>
<rect width="126.668" height="6.24489" transform="matrix(-0.779604 0.626272 -0.691498 -0.722378 115.077 4.51123)" fill="#61D2FB"/>
<rect width="129.114" height="6.24489" transform="matrix(-0.779604 0.626272 -0.691498 -0.722378 210.291 182.571)" fill="#61D2FB"/>
</svg>
